<svg width="172" height="50" viewBox="0 0 172 50" fill="none" xmlns="http://www.w3.org/2000/svg">
<g clip-path="url(#clip0_729_396)">
<path d="M167 0H5C2.23858 0 0 2.23858 0 5V45C0 47.7614 2.23858 50 5 50H167C169.761 50 172 47.7614 172 45V5C172 2.23858 169.761 0 167 0Z" fill="#BD081C"/>
<path d="M29.9656 19.5434C29.8795 19.1977 29.7108 18.8781 29.474 18.612C29.2373 18.3458 28.9395 18.1411 28.6063 18.0152C25.4 16.7777 20.2812 16.7871 20 16.7871C19.7188 16.7871 14.6 16.7777 11.3938 18.0152C11.0605 18.1411 10.7627 18.3458 10.526 18.612C10.2892 18.8781 10.1205 19.1977 10.0344 19.5434C9.79063 20.4715 9.5 22.1777 9.5 24.9996C9.5 27.8215 9.79063 29.5277 10.0344 30.4559C10.1205 30.8015 10.2892 31.1211 10.526 31.3872C10.7627 31.6534 11.0605 31.8581 11.3938 31.984C14.4688 33.1746 19.2875 33.2121 19.9344 33.2121H20.0656C20.7125 33.2121 25.5313 33.1746 28.6063 31.984C28.9395 31.8581 29.2373 31.6534 29.474 31.3872C29.7108 31.1211 29.8795 30.8015 29.9656 30.4559C30.2094 29.5277 30.5 27.8215 30.5 24.9996C30.5 22.1777 30.2094 20.4715 29.9656 19.5434ZM23.2062 25.309L18.7062 28.309C18.6466 28.3529 18.5741 28.376 18.5 28.3746C18.4379 28.3723 18.3771 28.3563 18.3219 28.3277C18.262 28.2966 18.2118 28.2494 18.1771 28.1915C18.1423 28.1336 18.1243 28.0672 18.125 27.9996V21.9996C18.1243 21.9321 18.1423 21.8657 18.1771 21.8077C18.2118 21.7498 18.262 21.7027 18.3219 21.6715C18.3817 21.6396 18.449 21.6245 18.5167 21.6278C18.5843 21.6311 18.6499 21.6527 18.7062 21.6902L23.2062 24.6902C23.2585 24.7232 23.3016 24.7688 23.3315 24.8229C23.3614 24.877 23.377 24.9378 23.377 24.9996C23.377 25.0614 23.3614 25.1222 23.3315 25.1763C23.3016 25.2304 23.2585 25.2761 23.2062 25.309Z" fill="white"/>
<path d="M41.6133 20.0469L44.1973 25.0439L46.7881 20.0469H48.2852L44.8535 26.2812V30H43.5342V26.2812L40.1025 20.0469H41.6133ZM48.5859 26.3838V26.2266C48.5859 25.6934 48.6634 25.1989 48.8184 24.7432C48.9733 24.2829 49.1966 23.8841 49.4883 23.5469C49.7799 23.2051 50.1331 22.9408 50.5479 22.7539C50.9626 22.5625 51.4274 22.4668 51.9424 22.4668C52.4619 22.4668 52.929 22.5625 53.3438 22.7539C53.763 22.9408 54.1185 23.2051 54.4102 23.5469C54.7064 23.8841 54.932 24.2829 55.0869 24.7432C55.2419 25.1989 55.3193 25.6934 55.3193 26.2266V26.3838C55.3193 26.917 55.2419 27.4115 55.0869 27.8672C54.932 28.3229 54.7064 28.7217 54.4102 29.0635C54.1185 29.4007 53.7653 29.665 53.3506 29.8564C52.9404 30.0433 52.4756 30.1367 51.9561 30.1367C51.4365 30.1367 50.9694 30.0433 50.5547 29.8564C50.14 29.665 49.7845 29.4007 49.4883 29.0635C49.1966 28.7217 48.9733 28.3229 48.8184 27.8672C48.6634 27.4115 48.5859 26.917 48.5859 26.3838ZM49.8506 26.2266V26.3838C49.8506 26.7529 49.8939 27.1016 49.9805 27.4297C50.0671 27.7533 50.1969 28.0404 50.3701 28.291C50.5479 28.5417 50.7689 28.7399 51.0332 28.8857C51.2975 29.027 51.6051 29.0977 51.9561 29.0977C52.3024 29.0977 52.6055 29.027 52.8652 28.8857C53.1296 28.7399 53.3483 28.5417 53.5215 28.291C53.6947 28.0404 53.8245 27.7533 53.9111 27.4297C54.0023 27.1016 54.0479 26.7529 54.0479 26.3838V26.2266C54.0479 25.862 54.0023 25.5179 53.9111 25.1943C53.8245 24.8662 53.6924 24.5768 53.5146 24.3262C53.3415 24.071 53.1227 23.8704 52.8584 23.7246C52.5986 23.5788 52.2933 23.5059 51.9424 23.5059C51.596 23.5059 51.2907 23.5788 51.0264 23.7246C50.7666 23.8704 50.5479 24.071 50.3701 24.3262C50.1969 24.5768 50.0671 24.8662 49.9805 25.1943C49.8939 25.5179 49.8506 25.862 49.8506 26.2266ZM61.4307 28.291V22.6035H62.7021V30H61.4922L61.4307 28.291ZM61.6699 26.7324L62.1963 26.7188C62.1963 27.2109 62.1439 27.6667 62.0391 28.0859C61.9388 28.5007 61.7747 28.8607 61.5469 29.166C61.319 29.4714 61.0205 29.7106 60.6514 29.8838C60.2822 30.0524 59.8333 30.1367 59.3047 30.1367C58.9447 30.1367 58.6143 30.0843 58.3135 29.9795C58.0173 29.8747 57.762 29.7129 57.5479 29.4941C57.3337 29.2754 57.1673 28.9906 57.0488 28.6396C56.9349 28.2887 56.8779 27.8672 56.8779 27.375V22.6035H58.1426V27.3887C58.1426 27.7214 58.179 27.9971 58.252 28.2158C58.3294 28.43 58.432 28.6009 58.5596 28.7285C58.6917 28.8516 58.8376 28.9382 58.9971 28.9883C59.1611 29.0384 59.3298 29.0635 59.5029 29.0635C60.0407 29.0635 60.4668 28.9609 60.7812 28.7559C61.0957 28.5462 61.3213 28.266 61.458 27.915C61.5993 27.5596 61.6699 27.1654 61.6699 26.7324ZM67.7266 22.6035V23.5742H63.7275V22.6035H67.7266ZM65.0811 20.8057H66.3457V28.168C66.3457 28.4186 66.3844 28.6077 66.4619 28.7354C66.5394 28.863 66.6396 28.9473 66.7627 28.9883C66.8857 29.0293 67.0179 29.0498 67.1592 29.0498C67.264 29.0498 67.3734 29.0407 67.4873 29.0225C67.6058 28.9997 67.6947 28.9814 67.7539 28.9678L67.7607 30C67.6605 30.0319 67.5283 30.0615 67.3643 30.0889C67.2048 30.1208 67.0111 30.1367 66.7832 30.1367C66.4733 30.1367 66.1885 30.0752 65.9287 29.9521C65.6689 29.8291 65.4616 29.624 65.3066 29.3369C65.1562 29.0452 65.0811 28.6533 65.0811 28.1611V20.8057ZM73.7354 28.291V22.6035H75.0068V30H73.7969L73.7354 28.291ZM73.9746 26.7324L74.501 26.7188C74.501 27.2109 74.4486 27.6667 74.3438 28.0859C74.2435 28.5007 74.0794 28.8607 73.8516 29.166C73.6237 29.4714 73.3252 29.7106 72.9561 29.8838C72.5869 30.0524 72.138 30.1367 71.6094 30.1367C71.2493 30.1367 70.9189 30.0843 70.6182 29.9795C70.3219 29.8747 70.0667 29.7129 69.8525 29.4941C69.6383 29.2754 69.472 28.9906 69.3535 28.6396C69.2396 28.2887 69.1826 27.8672 69.1826 27.375V22.6035H70.4473V27.3887C70.4473 27.7214 70.4837 27.9971 70.5566 28.2158C70.6341 28.43 70.7367 28.6009 70.8643 28.7285C70.9964 28.8516 71.1423 28.9382 71.3018 28.9883C71.4658 29.0384 71.6344 29.0635 71.8076 29.0635C72.3454 29.0635 72.7715 28.9609 73.0859 28.7559C73.4004 28.5462 73.626 28.266 73.7627 27.915C73.904 27.5596 73.9746 27.1654 73.9746 26.7324ZM76.9277 19.5H78.1992V28.5645L78.0898 30H76.9277V19.5ZM83.1963 26.2402V26.3838C83.1963 26.9215 83.1325 27.4206 83.0049 27.8809C82.8773 28.3366 82.6904 28.7331 82.4443 29.0703C82.1982 29.4076 81.8975 29.6696 81.542 29.8564C81.1865 30.0433 80.7786 30.1367 80.3184 30.1367C79.849 30.1367 79.4365 30.057 79.0811 29.8975C78.7301 29.7334 78.4339 29.4987 78.1924 29.1934C77.9508 28.888 77.7572 28.5189 77.6113 28.0859C77.4701 27.653 77.3721 27.1654 77.3174 26.623V25.9941C77.3721 25.4473 77.4701 24.9574 77.6113 24.5244C77.7572 24.0915 77.9508 23.7223 78.1924 23.417C78.4339 23.1071 78.7301 22.8724 79.0811 22.7129C79.432 22.5488 79.8398 22.4668 80.3047 22.4668C80.7695 22.4668 81.182 22.5579 81.542 22.7402C81.902 22.918 82.2028 23.1732 82.4443 23.5059C82.6904 23.8385 82.8773 24.2373 83.0049 24.7021C83.1325 25.1624 83.1963 25.6751 83.1963 26.2402ZM81.9248 26.3838V26.2402C81.9248 25.8711 81.8906 25.5247 81.8223 25.2012C81.7539 24.873 81.6445 24.5859 81.4941 24.3398C81.3438 24.0892 81.1455 23.8932 80.8994 23.752C80.6533 23.6061 80.3503 23.5332 79.9902 23.5332C79.6712 23.5332 79.3932 23.5879 79.1562 23.6973C78.9238 23.8066 78.7256 23.9548 78.5615 24.1416C78.3975 24.3239 78.263 24.5335 78.1582 24.7705C78.0579 25.0029 77.9827 25.2445 77.9326 25.4951V27.1426C78.0055 27.4616 78.124 27.7692 78.2881 28.0654C78.4567 28.3571 78.68 28.5964 78.958 28.7832C79.2406 28.9701 79.5892 29.0635 80.0039 29.0635C80.3457 29.0635 80.6374 28.9951 80.8789 28.8584C81.125 28.7171 81.3232 28.5234 81.4736 28.2773C81.6286 28.0312 81.7425 27.7464 81.8154 27.4229C81.8883 27.0993 81.9248 26.7529 81.9248 26.3838ZM87.8652 30.1367C87.3503 30.1367 86.8831 30.0501 86.4639 29.877C86.0492 29.6992 85.6914 29.4508 85.3906 29.1318C85.0944 28.8128 84.8665 28.4346 84.707 27.9971C84.5475 27.5596 84.4678 27.0811 84.4678 26.5615V26.2744C84.4678 25.6729 84.5566 25.1374 84.7344 24.668C84.9121 24.194 85.1536 23.793 85.459 23.4648C85.7643 23.1367 86.1107 22.8883 86.498 22.7197C86.8854 22.5511 87.2865 22.4668 87.7012 22.4668C88.2298 22.4668 88.6855 22.5579 89.0684 22.7402C89.4557 22.9225 89.7725 23.1777 90.0186 23.5059C90.2646 23.8294 90.4469 24.2122 90.5654 24.6543C90.6839 25.0918 90.7432 25.5703 90.7432 26.0898V26.6572H85.2197V25.625H89.4785V25.5293C89.4603 25.2012 89.3919 24.8822 89.2734 24.5723C89.1595 24.2624 88.9772 24.0072 88.7266 23.8066C88.4759 23.6061 88.1341 23.5059 87.7012 23.5059C87.4141 23.5059 87.1497 23.5674 86.9082 23.6904C86.6667 23.8089 86.4593 23.9867 86.2861 24.2236C86.113 24.4606 85.9785 24.75 85.8828 25.0918C85.7871 25.4336 85.7393 25.8278 85.7393 26.2744V26.5615C85.7393 26.9124 85.7871 27.2428 85.8828 27.5527C85.9831 27.8581 86.1266 28.127 86.3135 28.3594C86.5049 28.5918 86.735 28.7741 87.0039 28.9062C87.2773 29.0384 87.5872 29.1045 87.9336 29.1045C88.3802 29.1045 88.7585 29.0133 89.0684 28.8311C89.3783 28.6488 89.6494 28.4049 89.8818 28.0996L90.6475 28.708C90.488 28.9495 90.2852 29.1797 90.0391 29.3984C89.793 29.6172 89.4899 29.7949 89.1299 29.9316C88.7744 30.0684 88.3529 30.1367 87.8652 30.1367Z" fill="white"/>
</g>
<defs>
<clipPath id="clip0_729_396">
<rect width="172" height="50" fill="white"/>
</clipPath>
</defs>
</svg>
