<svg width="172" height="50" viewBox="0 0 172 50" fill="none" xmlns="http://www.w3.org/2000/svg">
<g clip-path="url(#clip0_729_402)">
<path d="M167 0H5C2.23858 0 0 2.23858 0 5V45C0 47.7614 2.23858 50 5 50H167C169.761 50 172 47.7614 172 45V5C172 2.23858 169.761 0 167 0Z" fill="#00ACED"/>
<path fill-rule="evenodd" clip-rule="evenodd" d="M31.9998 19.4496C31.483 20.1387 30.8583 20.7397 30.1498 21.2296C30.1498 21.4096 30.1498 21.5896 30.1498 21.7796C30.1526 23.3978 29.8335 25.0004 29.2109 26.4941C28.5884 27.9878 27.675 29.3427 26.5237 30.4799C25.3725 31.6172 24.0066 32.5141 22.5054 33.1183C21.0042 33.7226 19.3979 34.0221 17.7798 33.9996C15.8902 34.0059 14.0249 33.5746 12.3298 32.7396C12.2851 32.7201 12.2471 32.6879 12.2204 32.647C12.1937 32.6062 12.1796 32.5584 12.1798 32.5096V32.3996C12.1798 32.3306 12.2072 32.2645 12.256 32.2158C12.3047 32.167 12.3708 32.1396 12.4398 32.1396C14.2972 32.0784 16.0883 31.4347 17.5598 30.2996C16.736 30.283 15.9337 30.0339 15.2454 29.5809C14.5571 29.128 14.0109 28.4896 13.6698 27.7396C13.6525 27.6985 13.6461 27.6536 13.6511 27.6093C13.6562 27.565 13.6726 27.5227 13.6987 27.4866C13.7248 27.4504 13.7598 27.4216 13.8003 27.4029C13.8407 27.3841 13.8853 27.3761 13.9298 27.3796C14.4408 27.4309 14.9568 27.3834 15.4498 27.2396C14.5453 27.0519 13.7237 26.5818 13.1037 25.897C12.4836 25.2123 12.0971 24.3483 11.9998 23.4296C11.9963 23.3851 12.0043 23.3405 12.0231 23.3C12.0418 23.2596 12.0706 23.2246 12.1068 23.1985C12.1429 23.1724 12.1852 23.156 12.2295 23.1509C12.2738 23.1459 12.3187 23.1523 12.3598 23.1696C12.8578 23.3893 13.3955 23.505 13.9398 23.5096C13.149 22.9908 12.5523 22.2247 12.243 21.331C11.9336 20.4373 11.929 19.4662 12.2298 18.5696C12.2612 18.4815 12.3149 18.4031 12.3857 18.342C12.4565 18.2809 12.542 18.2393 12.6337 18.2211C12.7254 18.203 12.8203 18.209 12.909 18.2385C12.9977 18.268 13.0772 18.3201 13.1398 18.3896C15.3343 20.7241 18.3495 22.1152 21.5498 22.2696C21.4678 21.9427 21.4275 21.6067 21.4298 21.2696C21.4444 20.4054 21.7156 19.5651 22.2088 18.8554C22.702 18.1457 23.395 17.5985 24.1998 17.2834C25.0046 16.9684 25.8849 16.8996 26.7288 17.0859C27.5728 17.2722 28.3424 17.7051 28.9398 18.3296C29.7727 18.171 30.5779 17.8914 31.3298 17.4996C31.3568 17.4828 31.388 17.4738 31.4198 17.4738C31.4516 17.4738 31.4828 17.4828 31.5098 17.4996C31.5266 17.5266 31.5356 17.5578 31.5356 17.5896C31.5356 17.6214 31.5266 17.6526 31.5098 17.6796C31.1456 18.5132 30.5303 19.2124 29.7498 19.6796C30.4333 19.6004 31.1048 19.4392 31.7498 19.1996C31.7763 19.1815 31.8077 19.1719 31.8398 19.1719C31.8719 19.1719 31.9033 19.1815 31.9298 19.1996C31.9523 19.2099 31.9722 19.2249 31.9883 19.2437C32.0044 19.2625 32.0161 19.2846 32.0228 19.3084C32.0295 19.3322 32.0309 19.3571 32.0269 19.3815C32.0229 19.4059 32.0137 19.4291 31.9998 19.4496Z" fill="white"/>
<path d="M47.0322 21.127H43.833V30H42.5273V21.127H39.335V20.0469H47.0322V21.127ZM54.4489 28.2568L55.8708 22.6035H57.1354L54.9821 30H53.9567L52.1589 24.3945L50.4089 30H49.3835L47.237 22.6035H48.4948L49.9508 28.1406L51.6735 22.6035H52.6921L54.4489 28.2568ZM59.7874 30H58.5228V22.6035H59.7874V30ZM58.4202 20.6416C58.4202 20.4365 58.4818 20.2633 58.6048 20.1221C58.7324 19.9808 58.9193 19.9102 59.1654 19.9102C59.4115 19.9102 59.5983 19.9808 59.7259 20.1221C59.8535 20.2633 59.9173 20.4365 59.9173 20.6416C59.9173 20.8467 59.8535 21.0176 59.7259 21.1543C59.5983 21.291 59.4115 21.3594 59.1654 21.3594C58.9193 21.3594 58.7324 21.291 58.6048 21.1543C58.4818 21.0176 58.4202 20.8467 58.4202 20.6416ZM63.5195 20.8125V22.6035H64.9004V23.5811H63.5195V28.168C63.5195 28.4642 63.581 28.6875 63.7041 28.8379C63.8271 28.9837 64.0368 29.0566 64.333 29.0566C64.4788 29.0566 64.6794 29.0293 64.9346 28.9746V30C64.6019 30.0911 64.2783 30.1367 63.9639 30.1367C63.3988 30.1367 62.9726 29.9658 62.6855 29.624C62.3984 29.2822 62.2549 28.7969 62.2549 28.168V23.5811H60.9082V22.6035H62.2549V20.8125H63.5195ZM68.0856 20.8125V22.6035H69.4665V23.5811H68.0856V28.168C68.0856 28.4642 68.1471 28.6875 68.2702 28.8379C68.3932 28.9837 68.6029 29.0566 68.8991 29.0566C69.0449 29.0566 69.2454 29.0293 69.5006 28.9746V30C69.168 30.0911 68.8444 30.1367 68.5299 30.1367C67.9648 30.1367 67.5387 29.9658 67.2516 29.624C66.9645 29.2822 66.821 28.7969 66.821 28.168V23.5811H65.4743V22.6035H66.821V20.8125H68.0856ZM74.0052 30.1367C73.0026 30.1367 72.1868 29.8086 71.5579 29.1523C70.929 28.4915 70.6146 27.6097 70.6146 26.5068V26.2744C70.6146 25.5407 70.7536 24.8867 71.0316 24.3125C71.3141 23.7337 71.706 23.2826 72.2073 22.959C72.7132 22.6309 73.2601 22.4668 73.848 22.4668C74.8096 22.4668 75.557 22.7835 76.0902 23.417C76.6234 24.0505 76.89 24.9574 76.89 26.1377V26.6641H71.8792C71.8974 27.3932 72.1094 27.9834 72.515 28.4346C72.9251 28.8812 73.4446 29.1045 74.0736 29.1045C74.5202 29.1045 74.8984 29.0133 75.2083 28.8311C75.5182 28.6488 75.7894 28.4072 76.0218 28.1064L76.7943 28.708C76.1745 29.6605 75.2448 30.1367 74.0052 30.1367ZM73.848 23.5059C73.3376 23.5059 72.9092 23.6927 72.5628 24.0664C72.2165 24.4355 72.0023 24.9551 71.9202 25.625H75.6253V25.5293C75.5889 24.8867 75.4157 24.39 75.1058 24.0391C74.7959 23.6836 74.3766 23.5059 73.848 23.5059ZM81.9209 23.7383C81.7295 23.7064 81.5221 23.6904 81.2988 23.6904C80.4694 23.6904 79.9066 24.0436 79.6103 24.75V30H78.3457V22.6035H79.5762L79.5967 23.458C80.0114 22.7972 80.5993 22.4668 81.3603 22.4668C81.6064 22.4668 81.7933 22.4987 81.9209 22.5625V23.7383Z" fill="white"/>
</g>
<defs>
<clipPath id="clip0_729_402">
<rect width="172" height="50" fill="white"/>
</clipPath>
</defs>
</svg>
